<svg width="350pt" height="70pt" viewBox="0 0 350 70" xmlns="http://www.w3.org/2000/svg"><g fill="#bbb"><path d="M11.81 8.21c12.62.08 25.25.04 37.88.02-5.23 5.75-9.13 12.68-10.95 20.26 7.55-1.73 14.36-5.71 20.04-10.92-.05 12.62-.05 25.24 0 37.86-5.68-5.21-12.5-9.19-20.05-10.92 1.79 7.52 5.72 14.34 10.95 20-12.62-.01-25.25-.03-37.87.01 5.2-5.64 9.19-12.43 10.9-19.95-7.53 1.68-14.33 5.65-19.95 10.86-.01-12.62-.01-25.24 0-37.86 5.63 5.23 12.45 9.18 19.97 10.91-1.74-7.61-5.74-14.49-10.92-20.27m6.24 3.25c4.37 6.05 7.27 13.12 8.21 20.53-7.42-.9-14.5-3.81-20.52-8.22.02 8.49.02 16.97 0 25.46 6.01-4.43 13.1-7.31 20.52-8.22-.94 7.41-3.88 14.46-8.21 20.52 8.47-.06 16.95-.03 25.43-.01-4.37-6.05-7.33-13.09-8.24-20.52 7.43.89 14.44 3.89 20.52 8.19l-.01-25.43c-6.03 4.4-13.08 7.35-20.51 8.23.93-7.41 3.84-14.48 8.23-20.51-8.47.02-16.95.05-25.42-.02zM74.69 20.09c1.51-1 3.05-1.95 4.64-2.82l.2 2.54-1.13-.48c-.14 4.23-.13 8.45-.13 12.68 1.88-2.07 3.74-4.17 5.7-6.17 1.93 2.06 3.66 4.29 5.17 6.68-.5-.11-1.49-.34-1.98-.46l.57 1.08c-1.24.59-4.74 1.46-2.83 3.37 2.13 2.94 3.63 6.33 3.82 9.99l1.61-.05c-.62 1.12-1.27 2.23-1.92 3.34l-1.05-.42.14 1.63c-2.58-.12-3.48-2.71-5.12-4.24.21-.72.64-2.15.85-2.86-.92-1.5-1.43-3.84-3.65-3.76-1.85 1.27-1.08 3.8-1.4 5.68 1.22.69 2.44 1.38 3.64 2.12-1.38.91-2.71 1.88-3.99 2.92-1.9-.92-3.76-1.9-5.62-2.88 1.58-5.9.6-12.17.59-18.21l-2.27.03-.05-2.78 2.64-.04c.13-3.01-.74-5.88-2.01-8.58 1.2.56 2.39 1.12 3.58 1.69m4.45 14.36l-.85-.44-.04 5.68c1.93-2.02 3.91-4 5.9-5.96-.63-.83-1.27-1.65-1.92-2.47-2.01-.11-3.38 1.06-3.09 3.19zM129.39 18.07c1.38.78 2.79 1.48 4.17 2.27 1.48-1.25 3.12-2.29 4.88-3.13-.44 1.45-.85 2.91-1.24 4.38l-.6-.09c-.17 7.78 0 15.57-.11 23.36 1.27.64 2.55 1.24 3.86 1.8l.02 2.11-1.23-.57-1.63 1.72-.2 1.22c-2.54-1.16-4.79-2.82-7.12-4.33.62-1.22 1.57-2.38 1.54-3.81.06-6.71.04-13.41.01-20.11.14-1.93-1.39-3.33-2.35-4.82zM246.08 18.56l2.61-.24c-.19.85-.34 1.71-.46 2.57l-3.16 2.65c.35-1.66.68-3.32 1.01-4.98zM274.08 18.56l2.6-.24c-.16.85-.31 1.69-.43 2.54-.8.67-2.38 2.03-3.17 2.7.34-1.66.67-3.33 1-5zM279.77 28.86c2.15-3.03 4.28-6.06 6.47-9.06.2 2.47.3 4.95.33 7.43l4.59.03.58 2.44c-1.8.01-3.6-.07-5.4-.08.14 5.04-.16 10.09.13 15.13.79 1.7 2.96 3.25 4.85 1.01-.69.75-2.08 2.24-2.77 2.98-.83.85-1.67 1.7-2.51 2.54-1.84-1.53-3.76-2.95-5.75-4.27 1.96-4.43 1.02-9.35 1.22-14.04.29-1.68-.39-3.12-1.74-4.11zM213.1 23.84l2.07-1.21c.63 1.68 1.12 3.4 1.65 5.1l-1.05-.59c-.88 1.41-1.64 2.9-2.67 4.2l-1.16 2.85c-.46-1.51-1.45-3.89-2.93-1.8-1.53-.61-3.2-.74-4.72-1.37l.13 5.38c.78.47 1.56.94 2.35 1.41 1.26-1.36 1.91-3.9 4.16-3.65 1.26 1.49 2.91 2.57 4.28 3.94.34 3.23.1 6.49.21 9.74l-1.66-.6-.26 1.45-1.21-.29c-1.24.95-2.4 2.74-4.19 2.09-3.24-1.21-6.71-1.12-9.97-.05 1.4-2.3 3.28-4.35 3.97-7.01l1.54 1.86c2.47.15 4.89.7 7.23 1.49-.09-1.9-.04-3.8-.24-5.68-.68-1.01-1.89-1.51-2.79-2.28-1.14 1.58-2.22 3.23-2.85 5.09-.57-.92-1.13-1.85-1.67-2.79-1.19-.75-2.37-1.53-3.56-2.3-.01-2.75-.01-5.51 0-8.26 2.07-1.22 3.98-2.69 5.76-4.32 3.06.99 6.34 3.25 9.44 1.1-.61-1.17-1.23-2.34-1.86-3.5zM111.93 30.12c1.46-1.38 2.88-2.81 4.31-4.23 1.22 1.16 2.91 2.2 3.05 4.05.86 4.85.21 9.83.37 14.73l1.64 1.87c.94-.55 1.87-1.1 2.81-1.64.1.91.21 1.82.32 2.73l-1.91-.58.16 1.59-1.46-.33.52 1.51-1.7-.8.71 1.55c-.55-.03-1.64-.09-2.18-.13-1.63-1.3-3.34-2.5-5.09-3.64 2.39-3.5 1.31-7.86 1.54-11.81.14-2.12-.07-5.31-3.09-4.87zM144.73 30.38c2.48-.98 4.8-2.32 6.83-4.07 2.5 1.58 5.2 2.82 8.05 3.68.15 5.87.06 11.76.06 17.64l-.78-.2c-1.39.96-2.92 1.7-4.51 2.26l.37.9c-4.16.57-7.36-2.61-11.12-3.76 2.1-5.22.76-10.98 1.1-16.45m4.94.59c.02 4.48.04 8.97-.02 13.45 1.68.85 3.37 1.68 5.08 2.47.04-4.68.03-9.35 0-14.03-1.69-.64-3.37-1.28-5.06-1.89zM218.49 30.36c1.52-1.53 3.07-3.04 4.58-4.58 1.64 1.47 2.89 3.28 3.77 5.3 1.65-1.72 3.35-3.41 5.06-5.07 2 1.95 4.41 4.09 4.59 7.07.13 4.34 0 8.67.03 13.01-1.18.46-2.04 1.27-2.57 2.41l-1.28-.32-.06 1.48-1.36-.33.28 1.65c-1.73-.55-3.41-1.22-5.13-1.81-.32 3.25.9 6.22 2.73 8.83-2.29-.86-4.36-2.18-6.05-3.96l.7 1.14-4.08 1.15c2.04-2.36 2.23-5.4 2.06-8.35-1.22-.58-2.36-1.27-3.44-2.07.75-.2 2.24-.61 2.98-.81.61-4.71.95-9.7-.14-14.35-.67-.09-2-.29-2.67-.39m10.3.53c-.75.9-1.51 1.79-2.26 2.68 0 3.62-.01 7.23 0 10.85 1.72.61 3.48 1.17 5.22 1.77-.04-4.03.11-8.07-.04-12.09.1-1.74-1.68-2.48-2.92-3.21zM250.38 30.22c1.46-1.47 2.86-3.04 4.61-4.19 1.46 1.01 2.36 2.55 3.29 4.02 1.5-1.29 2.97-2.62 4.49-3.89 1.36 1.58 2.64 3.23 3.58 5.1l-1.83.22.03 1.26-1.34-.41.41 1.7c-1.45-1.36-2.91-2.71-4.41-4.01-1.58 4.16-.6 8.72-.85 13.06-.29 1.49.74 2.59 1.59 3.68l2.03-1.64 1.72.85c-2.05 1.04-3.64 2.73-5.39 4.17l.33 1.37c-2.17-1.64-4.35-3.24-6.62-4.73 2.62-4.92 1.36-10.85 1.09-16.19l-2.73-.37zM294.35 30.07c1.6-1.34 3.17-2.74 4.7-4.17 1.72 1.47 3.37 3.03 4.93 4.67l-1.5-.47c-1.38 4.54-.96 9.34-.9 14.01-.12 1.91 1.96 2.77 3.07 3.99-1.51.64-2.8 1.6-3.88 2.86-1.64-.96-3.27-2.17-3.85-4.07-.55-5.15.22-10.37-.35-15.52-.56-.32-1.67-.97-2.22-1.3zM309.35 26.1c1.16 1.04 2.34 2.05 3.52 3.08-1.15 5.73-.37 11.62-.6 17.42l1.89-.26.26 1.82c-2.11.42-4.12 4.53-6.09 1.75-.96-1.69-4.15-4.88-.17-5.62-.87.46-2.63 1.38-3.51 1.84l2-3c-.17-4.56 1.11-9.55-1.02-13.8 1.18-1.14 2.53-2.09 3.72-3.23zM95.17 28.81c2.25-.44 4.4-1.26 6.36-2.47 2.61.68 5.32 3.19 8.02 1.38-2.11 5.2-.88 10.9-1.18 16.35-.38 1.63.66 2.66 2.01 3.36-1.55 1.33-2.81 4.12-5.23 3.12-1.22-1.43-1.64-3.31-2.29-5.03-.95.84-1.91 1.65-2.9 2.44-.71.88-1.35 1.82-1.92 2.8-3.33-.16-5.22-3.67-5.3-6.67.29-3.51 2.23-6.57 4.64-9.01-.71-2.1-1.45-4.19-2.21-6.27m1.72.62c.61 1.85 1.22 3.71 1.87 5.55 1.5.85 3 1.71 4.51 2.54l-.06-5.43c-2.13-.84-4.23-1.73-6.32-2.66m.66 8.07c-.69 3.35.17 6.66 1.63 9.67 1.41-1.07 2.74-2.24 4.11-3.36-.03-1.62-.05-3.23-.07-4.84-1.8-.88-3.57-2.43-5.67-1.47zM120.5 29.08c1.31-.92 2.6-1.86 3.88-2.81 1.26 1.55 2.46 3.17 3.56 4.85-1.32.61-2.57 1.35-3.94 1.86-1.29-1.18-2.34-2.6-3.5-3.9zM182.51 30.49c2.31-1.24 4.5-2.7 6.61-4.26 2.43 2.31 4.82 4.67 7.02 7.21l-1.79-.21.28.87c-2.21 1.36-4.17 3.07-6.12 4.78l.05.78-1.18-.01c-.01 1.77-.02 3.53-.04 5.29 1.21.66 2.42 1.3 3.63 1.95.93-.68 1.87-1.35 2.82-2.02l2.33 1.73c-.5-.18-1.5-.55-2.01-.73l.35 1.16c-1.35.29-2.57.89-3.59 1.83-.7.83-1.37 1.7-2 2.6-2.53-1.29-5.03-2.66-7.72-3.6 2.64-5.39.83-11.62 1.36-17.37m4.8.29c.06 2.41.06 4.83.05 7.24 1.29-1.01 2.59-2.01 3.9-3-1.34-1.39-2.67-2.8-3.95-4.24zM241.05 29.25c1.1-.95 2.21-1.89 3.31-2.85l3.74 3.08c-.45.9-.91 1.78-1.38 2.66-.04 4.85-.13 9.71.09 14.56l3.05.2c-1.74 1.53-3.08 4.32-5.79 3.95-3-1.98-1.88-5.86-2.08-8.85-.22-4.24.74-8.71-.94-12.75zM269.05 29.24c1.11-.94 2.21-1.89 3.31-2.84l3.74 3.08c-.45.89-.91 1.78-1.37 2.66-.05 4.76-.15 9.51.08 14.26l3.12 1.39c-1.97.94-3.52 3.16-5.87 3.07-2.99-2-1.87-5.87-2.07-8.87-.21-4.24.73-8.71-.94-12.75z"/></g></svg>